<svg width="14" height="14" viewBox="0 0 14 14" fill="none" xmlns="http://www.w3.org/2000/svg">
<g clip-path="url(#clip0_8_775)">
<path d="M13.6962 6.37207C13.9717 6.10351 14.069 5.70936 13.9501 5.34296C13.831 4.97656 13.5207 4.71501 13.1394 4.6595L9.74958 4.16695C9.60521 4.14592 9.48046 4.05538 9.41598 3.92446L7.90048 0.853092C7.73032 0.507998 7.38494 0.293541 7.00004 0.293541C6.61542 0.293541 6.27004 0.507998 6.09988 0.853092L4.5841 3.92474C4.51962 4.05566 4.39459 4.1462 4.25022 4.16723L0.860392 4.65978C0.479414 4.71501 0.168802 4.97684 0.0496586 5.34324C-0.069204 5.70964 0.0280727 6.10379 0.303643 6.37236L2.75631 8.76306C2.86087 8.86511 2.90881 9.012 2.88414 9.15554L2.30553 12.5313C2.25422 12.8285 2.33216 13.1175 2.52447 13.3454C2.82331 13.7006 3.34501 13.8088 3.76215 13.5896L6.79371 11.9956C6.92042 11.9292 7.07993 11.9297 7.20637 11.9956L10.2382 13.5896C10.3857 13.6673 10.5429 13.7065 10.7052 13.7065C11.0016 13.7065 11.2825 13.5748 11.4756 13.3454C11.6682 13.1175 11.7459 12.8279 11.6946 12.5313L11.1157 9.15554C11.091 9.01172 11.1389 8.86511 11.2435 8.76306L13.6962 6.37207Z" fill="#F0BF5F"/>
</g>
<defs>
<clipPath id="clip0_8_775">
<rect width="14" height="14" fill="white"/>
</clipPath>
</defs>
</svg>
